<?xml version="1.0" standalone="no"?>
<!DOCTYPE svg PUBLIC "-//W3C//DTD SVG 20010904//EN"
 "http://www.w3.org/TR/2001/REC-SVG-20010904/DTD/svg10.dtd">
<svg version="1.0" xmlns="http://www.w3.org/2000/svg"
 width="350.000000pt" height="350.000000pt" viewBox="0 0 350.000000 350.000000"
 preserveAspectRatio="xMidYMid meet">
<metadata>
Created by potrace 1.14, written by Peter Selinger 2001-2017
</metadata>
<g transform="translate(0.000000,350.000000) scale(0.100000,-0.100000)"
fill="#000000" stroke="none">
<path d="M1725 2696 c-11 -7 -38 -24 -60 -36 -22 -12 -199 -115 -392 -227
l-353 -205 0 -475 c0 -461 3 -513 31 -513 5 0 22 -8 37 -19 15 -10 173 -103
352 -206 179 -104 335 -195 348 -203 l22 -14 0 155 0 154 -237 138 c-131 76
-250 145 -264 153 l-26 14 1 331 1 331 135 79 c74 43 153 89 175 102 22 12 88
50 147 85 103 60 107 61 135 47 15 -9 143 -82 283 -164 l256 -148 0 -332 c0
-325 0 -332 -20 -342 -12 -6 -35 -19 -51 -28 -17 -10 -126 -74 -243 -142
l-212 -124 0 -154 c0 -144 1 -153 18 -144 9 6 186 109 392 229 l375 219 3 485
2 485 -212 124 c-117 68 -217 126 -223 129 -5 3 -21 12 -35 21 -37 24 -358
209 -362 209 -2 0 -12 -6 -23 -14z"/>
<path d="M1655 2249 c-44 -27 -87 -52 -95 -56 -8 -4 -69 -39 -135 -78 -66 -39
-128 -74 -138 -78 -16 -6 -17 -31 -17 -291 l0 -284 117 -69 c65 -37 125 -72
135 -78 9 -5 65 -38 124 -71 l108 -61 60 37 c34 20 81 48 106 62 25 14 105 60
178 103 l132 77 0 282 0 282 -37 21 c-21 11 -127 73 -237 137 -109 64 -203
116 -210 115 -6 -1 -47 -23 -91 -50z"/>
</g>
</svg>
